<?xml version="1.0" encoding="utf-8" ?>
<svg baseProfile="full" height="270" version="1.1" width="179" xmlns="http://www.w3.org/2000/svg" xmlns:ev="http://www.w3.org/2001/xml-events" xmlns:xlink="http://www.w3.org/1999/xlink"><defs /><circle cx="10.633333333333333" cy="5" fill="white" r="0.5" stroke="red" /><circle cx="10.633333333333333" cy="265" fill="white" r="0.5" stroke="blue" /><circle cx="18.60006973470177" cy="5" fill="white" r="0.5" stroke="red" /><circle cx="18.60006973470177" cy="265" fill="white" r="0.5" stroke="blue" /><circle cx="26.566806136070205" cy="5" fill="white" r="0.5" stroke="red" /><circle cx="26.566806136070205" cy="265" fill="white" r="0.5" stroke="blue" /><circle cx="34.53354253743864" cy="5" fill="white" r="0.5" stroke="red" /><circle cx="34.53354253743864" cy="265" fill="white" r="0.5" stroke="blue" /><circle cx="42.50027893880708" cy="5" fill="white" r="0.5" stroke="red" /><circle cx="42.50027893880708" cy="265" fill="white" r="0.5" stroke="blue" /><circle cx="50.467015340175514" cy="5" fill="white" r="0.5" stroke="red" /><circle cx="50.467015340175514" cy="265" fill="white" r="0.5" stroke="blue" /><circle cx="58.43375174154395" cy="5" fill="white" r="0.5" stroke="red" /><circle cx="58.43375174154395" cy="265" fill="white" r="0.5" stroke="blue" /><circle cx="66.40048814291238" cy="5" fill="white" r="0.5" stroke="red" /><circle cx="66.40048814291238" cy="265" fill="white" r="0.5" stroke="blue" /><circle cx="74.36722454428082" cy="5" fill="white" r="0.5" stroke="red" /><circle cx="74.36722454428082" cy="265" fill="white" r="0.5" stroke="blue" /><circle cx="82.33396094564925" cy="5" fill="white" r="0.5" stroke="red" /><circle cx="82.33396094564925" cy="265" fill="white" r="0.5" stroke="blue" /><circle cx="90.30069734701769" cy="5" fill="white" r="0.5" stroke="red" /><circle cx="90.30069734701769" cy="265" fill="white" r="0.5" stroke="blue" /><circle cx="98.26743374838613" cy="5" fill="white" r="0.5" stroke="red" /><circle cx="98.26743374838613" cy="265" fill="white" r="0.5" stroke="blue" /><circle cx="106.23417014975456" cy="5" fill="white" r="0.5" stroke="red" /><circle cx="106.23417014975456" cy="265" fill="white" r="0.5" stroke="blue" /><circle cx="114.200906551123" cy="5" fill="white" r="0.5" stroke="red" /><circle cx="114.200906551123" cy="265" fill="white" r="0.5" stroke="blue" /><circle cx="122.16764295249143" cy="5" fill="white" r="0.5" stroke="red" /><circle cx="122.16764295249143" cy="265" fill="white" r="0.5" stroke="blue" /><circle cx="130.13437935385986" cy="5" fill="white" r="0.5" stroke="red" /><circle cx="130.13437935385986" cy="265" fill="white" r="0.5" stroke="blue" /><circle cx="138.10111575522828" cy="5" fill="white" r="0.5" stroke="red" /><circle cx="138.10111575522828" cy="265" fill="white" r="0.5" stroke="blue" /><circle cx="146.0678521565967" cy="5" fill="white" r="0.5" stroke="red" /><circle cx="146.0678521565967" cy="265" fill="white" r="0.5" stroke="blue" /><circle cx="154.03458855796512" cy="5" fill="white" r="0.5" stroke="red" /><circle cx="154.03458855796512" cy="265" fill="white" r="0.5" stroke="blue" /><circle cx="162.00132495933354" cy="5" fill="white" r="0.5" stroke="red" /><circle cx="162.00132495933354" cy="265" fill="white" r="0.5" stroke="blue" /><circle cx="169.96806136070197" cy="5" fill="white" r="0.5" stroke="red" /><circle cx="169.96806136070197" cy="265" fill="white" r="0.5" stroke="blue" /><circle cx="5" cy="10.633333333333333" fill="white" r="0.5" stroke="red" /><circle cx="5" cy="259.3666666666667" fill="white" r="0.5" stroke="blue" /><circle cx="174" cy="10.633333333333333" fill="white" r="0.5" stroke="red" /><circle cx="174" cy="259.3666666666667" fill="white" r="0.5" stroke="blue" /><circle cx="5" cy="18.60006973470177" fill="white" r="0.5" stroke="red" /><circle cx="5" cy="251.39993026529822" fill="white" r="0.5" stroke="blue" /><circle cx="174" cy="18.60006973470177" fill="white" r="0.5" stroke="red" /><circle cx="174" cy="251.39993026529822" fill="white" r="0.5" stroke="blue" /><circle cx="5" cy="26.566806136070205" fill="white" r="0.5" stroke="red" /><circle cx="5" cy="243.4331938639298" fill="white" r="0.5" stroke="blue" /><circle cx="174" cy="26.566806136070205" fill="white" r="0.5" stroke="red" /><circle cx="174" cy="243.4331938639298" fill="white" r="0.5" stroke="blue" /><circle cx="5" cy="34.53354253743864" fill="white" r="0.5" stroke="red" /><circle cx="5" cy="235.46645746256135" fill="white" r="0.5" stroke="blue" /><circle cx="174" cy="34.53354253743864" fill="white" r="0.5" stroke="red" /><circle cx="174" cy="235.46645746256135" fill="white" r="0.5" stroke="blue" /><circle cx="5" cy="42.50027893880708" fill="white" r="0.5" stroke="red" /><circle cx="5" cy="227.49972106119293" fill="white" r="0.5" stroke="blue" /><circle cx="174" cy="42.50027893880708" fill="white" r="0.5" stroke="red" /><circle cx="174" cy="227.49972106119293" fill="white" r="0.5" stroke="blue" /><circle cx="5" cy="50.467015340175514" fill="white" r="0.5" stroke="red" /><circle cx="5" cy="219.53298465982448" fill="white" r="0.5" stroke="blue" /><circle cx="174" cy="50.467015340175514" fill="white" r="0.5" stroke="red" /><circle cx="174" cy="219.53298465982448" fill="white" r="0.5" stroke="blue" /><circle cx="5" cy="58.43375174154395" fill="white" r="0.5" stroke="red" /><circle cx="5" cy="211.56624825845606" fill="white" r="0.5" stroke="blue" /><circle cx="174" cy="58.43375174154395" fill="white" r="0.5" stroke="red" /><circle cx="174" cy="211.56624825845606" fill="white" r="0.5" stroke="blue" /><circle cx="5" cy="66.40048814291238" fill="white" r="0.5" stroke="red" /><circle cx="5" cy="203.59951185708763" fill="white" r="0.5" stroke="blue" /><circle cx="174" cy="66.40048814291238" fill="white" r="0.5" stroke="red" /><circle cx="174" cy="203.59951185708763" fill="white" r="0.5" stroke="blue" /><circle cx="5" cy="74.36722454428082" fill="white" r="0.5" stroke="red" /><circle cx="5" cy="195.63277545571918" fill="white" r="0.5" stroke="blue" /><circle cx="174" cy="74.36722454428082" fill="white" r="0.5" stroke="red" /><circle cx="174" cy="195.63277545571918" fill="white" r="0.5" stroke="blue" /><circle cx="5" cy="82.33396094564925" fill="white" r="0.5" stroke="red" /><circle cx="5" cy="187.66603905435073" fill="white" r="0.5" stroke="blue" /><circle cx="174" cy="82.33396094564925" fill="white" r="0.5" stroke="red" /><circle cx="174" cy="187.66603905435073" fill="white" r="0.5" stroke="blue" /><circle cx="5" cy="90.30069734701769" fill="white" r="0.5" stroke="red" /><circle cx="5" cy="179.6993026529823" fill="white" r="0.5" stroke="blue" /><circle cx="174" cy="90.30069734701769" fill="white" r="0.5" stroke="red" /><circle cx="174" cy="179.6993026529823" fill="white" r="0.5" stroke="blue" /></svg>